<svg width="38" height="38" viewBox="0 0 38 38" fill="none" xmlns="http://www.w3.org/2000/svg">
<g filter="url(#filter0_b_2837_911)">
<rect width="38" height="38" rx="19" fill="#DAC5A7" fill-opacity="0.05"/>
<rect x="0.5" y="0.5" width="37" height="37" rx="18.5" stroke="#DAC5A7" stroke-opacity="0.15"/>
<path d="M21.125 16C21.125 15.9005 21.1645 15.8052 21.2348 15.7348C21.3052 15.6645 21.4005 15.625 21.5 15.625H25.5C25.5995 15.625 25.6948 15.6645 25.7652 15.7348C25.8355 15.8052 25.875 15.9005 25.875 16C25.875 16.0995 25.8355 16.1948 25.7652 16.2652C25.6948 16.3355 25.5995 16.375 25.5 16.375H21.5C21.4005 16.375 21.3052 16.3355 21.2348 16.2652C21.1645 16.1948 21.125 16.0995 21.125 16ZM26.375 20.5C26.375 20.5995 26.3355 20.6948 26.2652 20.7652C26.1948 20.8355 26.0995 20.875 26 20.875H21.4063C21.4954 21.3655 21.7538 21.8093 22.1363 22.129C22.5189 22.4488 23.0014 22.6243 23.5 22.625C23.7792 22.6267 24.0558 22.5723 24.3135 22.4649C24.5712 22.3576 24.8047 22.1995 25 22C25.0712 21.9309 25.1664 21.8922 25.2656 21.8922C25.3648 21.8922 25.4601 21.9309 25.5313 22C25.567 22.0344 25.5954 22.0757 25.6148 22.1213C25.6342 22.1669 25.6442 22.216 25.6442 22.2656C25.6442 22.3152 25.6342 22.3643 25.6148 22.41C25.5954 22.4556 25.567 22.4968 25.5313 22.5312C25.0605 23.0012 24.4414 23.2934 23.7793 23.358C23.1173 23.4227 22.4533 23.2557 21.9006 22.8857C21.3478 22.5156 20.9405 21.9653 20.748 21.3286C20.5555 20.6918 20.5898 20.0081 20.8449 19.3938C21.1001 18.7795 21.5604 18.2727 22.1474 17.9597C22.7344 17.6467 23.4117 17.547 24.0639 17.6775C24.7162 17.808 25.3031 18.1606 25.7245 18.6753C26.1459 19.1899 26.3758 19.8348 26.375 20.5ZM25.5938 20.125C25.5082 19.6317 25.2513 19.1845 24.8682 18.8622C24.4852 18.5398 24.0006 18.3631 23.5 18.3631C22.9994 18.3631 22.5148 18.5398 22.1318 18.8622C21.7487 19.1845 21.4918 19.6317 21.4063 20.125H25.5938ZM19.625 20.875C19.625 21.538 19.3616 22.1739 18.8928 22.6428C18.4239 23.1116 17.788 23.375 17.125 23.375H13C12.9005 23.375 12.8052 23.3355 12.7348 23.2652C12.6645 23.1948 12.625 23.0995 12.625 23V15C12.625 14.9005 12.6645 14.8052 12.7348 14.7348C12.8052 14.6645 12.9005 14.625 13 14.625H16.375C16.8249 14.6249 17.2646 14.7598 17.6371 15.0121C18.0097 15.2644 18.298 15.6227 18.4649 16.0405C18.6317 16.4584 18.6695 16.9167 18.5733 17.3562C18.477 17.7958 18.2512 18.1963 17.925 18.5062C18.4205 18.6736 18.8511 18.9922 19.1561 19.4171C19.461 19.8421 19.625 20.352 19.625 20.875ZM13.375 18.375H16.375C16.7728 18.375 17.1544 18.217 17.4357 17.9357C17.717 17.6544 17.875 17.2728 17.875 16.875C17.875 16.4772 17.717 16.0956 17.4357 15.8143C17.1544 15.533 16.7728 15.375 16.375 15.375H13.375V18.375ZM18.875 20.875C18.8734 20.4114 18.6885 19.9672 18.3606 19.6394C18.0328 19.3116 17.5886 19.1266 17.125 19.125H13.375V22.625H17.125C17.5886 22.6234 18.0328 22.4384 18.3606 22.1106C18.6885 21.7828 18.8734 21.3386 18.875 20.875Z" fill="#DAC5A7"/>
</g>
<defs>
<filter id="filter0_b_2837_911" x="-30" y="-30" width="98" height="98" filterUnits="userSpaceOnUse" color-interpolation-filters="sRGB">
<feFlood flood-opacity="0" result="BackgroundImageFix"/>
<feGaussianBlur in="BackgroundImageFix" stdDeviation="15"/>
<feComposite in2="SourceAlpha" operator="in" result="effect1_backgroundBlur_2837_911"/>
<feBlend mode="normal" in="SourceGraphic" in2="effect1_backgroundBlur_2837_911" result="shape"/>
</filter>
</defs>
</svg>
