<svg width="38" height="38" viewBox="0 0 38 38" fill="none" xmlns="http://www.w3.org/2000/svg">
<g filter="url(#filter0_b_2837_906)">
<rect width="38" height="38" rx="19" fill="#DAC5A7" fill-opacity="0.05"/>
<rect x="0.5" y="0.5" width="37" height="37" rx="18.5" stroke="#DAC5A7" stroke-opacity="0.15"/>
<path d="M25.375 19.0438V19C25.3756 18.0525 25.1643 17.1167 24.7566 16.2614C24.3489 15.406 23.7552 14.6526 23.0188 14.0563L22.9875 14.025L22.9563 14C21.8312 13.107 20.4364 12.6222 19 12.625C18.0451 12.6226 17.1024 12.8385 16.2438 13.2563L16.1688 13.2875C15.2979 13.7218 14.5373 14.3489 13.945 15.121C13.3526 15.8931 12.9439 16.7901 12.75 17.7438V17.7563C12.6665 18.1656 12.6247 18.5823 12.625 19C12.6252 19.9903 12.8564 20.9669 13.3002 21.8522C13.7439 22.7376 14.388 23.5072 15.1813 24.1L15.2438 24.15H15.2563C16.343 24.9445 17.6539 25.3734 19 25.375C19.7219 25.3772 20.4387 25.2546 21.1188 25.0125L21.1563 25C22.3812 24.557 23.4416 23.7504 24.1955 22.6882C24.9495 21.6259 25.361 20.3588 25.375 19.0563V19.0438ZM24.6125 18.6438C24.4125 18.6313 24.2063 18.625 24 18.625C23.0446 18.6239 22.0937 18.7564 21.175 19.0188C20.9436 18.3173 20.6421 17.641 20.275 17L20.2438 16.9563C21.1996 16.3931 22.0602 15.6823 22.7938 14.85C23.8695 15.8305 24.5217 17.191 24.6125 18.6438ZM22.2063 14.3813C21.5267 15.1528 20.7268 15.8092 19.8375 16.325C19.1185 15.2893 18.2187 14.3916 17.1813 13.675C18.0157 13.3913 18.905 13.3074 19.7778 13.4301C20.6506 13.5527 21.4824 13.8785 22.2063 14.3813ZM16.3563 14.0375C17.4628 14.7197 18.4195 15.619 19.1688 16.6813C17.8672 17.3035 16.4427 17.626 15 17.625C14.5231 17.6241 14.0468 17.5886 13.575 17.5188C13.7777 16.78 14.1289 16.0902 14.6071 15.4917C15.0853 14.8932 15.6804 14.3984 16.3563 14.0375ZM13.375 19C13.3759 18.7513 13.3926 18.5029 13.425 18.2563C13.9465 18.3333 14.4728 18.373 15 18.375C16.5885 18.3782 18.1563 18.0146 19.5813 17.3125L19.625 17.3813C19.9685 17.9733 20.2492 18.5996 20.4625 19.25C19.8969 19.4521 19.3509 19.7052 18.8313 20.0063C17.4311 20.8085 16.2387 21.9281 15.35 23.275C14.7311 22.7478 14.234 22.0925 13.893 21.3544C13.552 20.6163 13.3753 19.8131 13.375 19ZM15.95 23.725C17.0841 22.0061 18.734 20.691 20.6625 19.9688C20.8426 20.7094 20.9328 21.4691 20.9313 22.2313C20.934 22.9484 20.8543 23.6635 20.6938 24.3625C19.9049 24.6125 19.0706 24.685 18.2505 24.5748C17.4304 24.4646 16.6448 24.1744 15.95 23.725ZM21.5313 24.025C21.6311 23.4323 21.6813 22.8323 21.6813 22.2313C21.6821 21.391 21.5813 20.5537 21.3813 19.7375C22.2336 19.4982 23.1147 19.3762 24 19.375C24.2063 19.375 24.4063 19.3813 24.6125 19.3938C24.5432 20.3663 24.2229 21.3042 23.6829 22.1159C23.1428 22.9276 22.4015 23.5854 21.5313 24.025Z" fill="#DAC5A7"/>
</g>
<defs>
<filter id="filter0_b_2837_906" x="-30" y="-30" width="98" height="98" filterUnits="userSpaceOnUse" color-interpolation-filters="sRGB">
<feFlood flood-opacity="0" result="BackgroundImageFix"/>
<feGaussianBlur in="BackgroundImageFix" stdDeviation="15"/>
<feComposite in2="SourceAlpha" operator="in" result="effect1_backgroundBlur_2837_906"/>
<feBlend mode="normal" in="SourceGraphic" in2="effect1_backgroundBlur_2837_906" result="shape"/>
</filter>
</defs>
</svg>
