<svg width="38" height="38" viewBox="0 0 38 38" fill="none" xmlns="http://www.w3.org/2000/svg">
<g filter="url(#filter0_b_2836_896)">
<rect width="38" height="38" rx="19" fill="#DAC5A7" fill-opacity="0.05"/>
<rect x="0.5" y="0.5" width="37" height="37" rx="18.5" stroke="#DAC5A7" stroke-opacity="0.15"/>
<path d="M19 16.125C18.4314 16.125 17.8755 16.2936 17.4027 16.6095C16.9299 16.9254 16.5614 17.3744 16.3438 17.8998C16.1262 18.4251 16.0693 19.0032 16.1802 19.5609C16.2912 20.1186 16.565 20.6309 16.9671 21.0329C17.3691 21.435 17.8814 21.7088 18.4391 21.8198C18.9968 21.9307 19.5749 21.8738 20.1002 21.6562C20.6256 21.4386 21.0746 21.0701 21.3905 20.5973C21.7064 20.1245 21.875 19.5686 21.875 19C21.875 18.2375 21.5721 17.5062 21.0329 16.9671C20.4938 16.4279 19.7625 16.125 19 16.125ZM19 21.125C18.5797 21.125 18.1689 21.0004 17.8194 20.7669C17.47 20.5334 17.1976 20.2015 17.0368 19.8132C16.8759 19.4249 16.8338 18.9976 16.9158 18.5854C16.9978 18.1732 17.2002 17.7946 17.4974 17.4974C17.7946 17.2002 18.1732 16.9978 18.5854 16.9158C18.9976 16.8338 19.4249 16.8759 19.8132 17.0368C20.2015 17.1976 20.5334 17.47 20.7669 17.8194C21.0004 18.1689 21.125 18.5797 21.125 19C21.1234 19.5631 20.8989 20.1026 20.5008 20.5008C20.1026 20.8989 19.5631 21.1234 19 21.125ZM21.75 12.875H16.25C15.3549 12.875 14.4964 13.2306 13.8635 13.8635C13.2306 14.4964 12.875 15.3549 12.875 16.25V21.75C12.875 22.6451 13.2306 23.5035 13.8635 24.1365C14.4964 24.7694 15.3549 25.125 16.25 25.125H21.75C22.6451 25.125 23.5035 24.7694 24.1365 24.1365C24.7694 23.5035 25.125 22.6451 25.125 21.75V16.25C25.125 15.3549 24.7694 14.4964 24.1365 13.8635C23.5035 13.2306 22.6451 12.875 21.75 12.875ZM24.375 21.75C24.375 22.4462 24.0984 23.1139 23.6062 23.6062C23.1139 24.0984 22.4462 24.375 21.75 24.375H16.25C15.5538 24.375 14.8861 24.0984 14.3938 23.6062C13.9016 23.1139 13.625 22.4462 13.625 21.75V16.25C13.625 15.5538 13.9016 14.8861 14.3938 14.3938C14.8861 13.9016 15.5538 13.625 16.25 13.625H21.75C22.4462 13.625 23.1139 13.9016 23.6062 14.3938C24.0984 14.8861 24.375 15.5538 24.375 16.25V21.75ZM22.875 15.75C22.875 15.8736 22.8383 15.9945 22.7697 16.0972C22.701 16.2 22.6034 16.2801 22.4892 16.3274C22.375 16.3747 22.2493 16.3871 22.1281 16.363C22.0068 16.3389 21.8955 16.2793 21.8081 16.1919C21.7206 16.1045 21.6611 15.9932 21.637 15.8719C21.6129 15.7507 21.6253 15.625 21.6726 15.5108C21.7199 15.3966 21.8 15.299 21.9028 15.2303C22.0055 15.1617 22.1264 15.125 22.25 15.125C22.4158 15.125 22.5747 15.1908 22.6919 15.3081C22.8092 15.4253 22.875 15.5842 22.875 15.75Z" fill="#DAC5A7"/>
</g>
<defs>
<filter id="filter0_b_2836_896" x="-30" y="-30" width="98" height="98" filterUnits="userSpaceOnUse" color-interpolation-filters="sRGB">
<feFlood flood-opacity="0" result="BackgroundImageFix"/>
<feGaussianBlur in="BackgroundImageFix" stdDeviation="15"/>
<feComposite in2="SourceAlpha" operator="in" result="effect1_backgroundBlur_2836_896"/>
<feBlend mode="normal" in="SourceGraphic" in2="effect1_backgroundBlur_2836_896" result="shape"/>
</filter>
</defs>
</svg>
