<svg width="104" height="32" viewBox="0 0 104 32" fill="none" xmlns="http://www.w3.org/2000/svg">
<g filter="url(#filter0_dd_1301_3321)">
<path d="M4.45081 23.1875H25.8258V1.8125H4.45081V23.1875ZM21.7117 10.4433H17.195V5.92667H21.7117V10.4433ZM8.56414 5.92667H13.0833V14.5567H21.7117V19.0733H8.56414V5.92667ZM39.745 1.8125C37.6312 1.8125 35.5648 2.43932 33.8073 3.61367C32.0497 4.78803 30.6799 6.45719 29.871 8.41008C29.0621 10.363 28.8505 12.5118 29.2628 14.585C29.6752 16.6582 30.6931 18.5625 32.1877 20.0572C33.6824 21.5519 35.5867 22.5697 37.6599 22.9822C39.7332 23.3945 41.882 23.1829 43.8349 22.374C45.7878 21.5651 47.4569 20.1952 48.6313 18.4377C49.8057 16.6801 50.4325 14.6137 50.4325 12.5C50.4292 9.6665 49.3021 6.95003 47.2985 4.94646C45.2949 2.94288 42.5785 1.81581 39.745 1.8125ZM39.745 19.0733C38.4449 19.0733 37.174 18.6878 36.093 17.9655C35.0121 17.2432 34.1695 16.2167 33.672 15.0155C33.1745 13.8144 33.0443 12.4927 33.2979 11.2176C33.5516 9.9425 34.1777 8.77125 35.0969 7.85195C36.0162 6.93266 37.1875 6.30661 38.4626 6.05298C39.7377 5.79934 41.0593 5.92952 42.2605 6.42703C43.4616 6.92455 44.4882 7.76707 45.2105 8.84808C45.9328 9.929 46.3183 11.1999 46.3183 12.5C46.3157 14.2426 45.6222 15.913 44.3901 17.1452C43.1579 18.3773 41.4875 19.0707 39.745 19.0733ZM88.6775 1.8125C86.5633 1.81234 84.4972 2.43901 82.7396 3.61327C80.9819 4.78752 79.612 6.45662 78.8029 8.4095C77.9939 10.3623 77.7821 12.5113 78.1944 14.5845C78.6067 16.6577 79.6245 18.5622 81.1192 20.0569C82.6137 21.5517 84.5181 22.5697 86.5917 22.9821C88.6642 23.3945 90.8133 23.1829 92.7667 22.3741C94.7192 21.5652 96.3883 20.1953 97.5625 18.4377C98.7375 16.6802 99.3642 14.6138 99.3642 12.5C99.3608 9.66667 98.2342 6.9503 96.2308 4.94675C94.2275 2.94319 91.5108 1.81603 88.6775 1.8125ZM88.6775 19.0733C87.3775 19.0735 86.1067 18.6881 85.0253 17.9659C83.9442 17.2437 83.1016 16.2172 82.6039 15.0161C82.1062 13.815 81.976 12.4932 82.2295 11.2181C82.4831 9.943 83.1091 8.77167 84.0283 7.85225C84.9476 6.93287 86.1192 6.30673 87.3942 6.05303C88.6692 5.79933 89.9908 5.92946 91.1917 6.42696C92.3933 6.92445 93.42 7.76697 94.1425 8.848C94.8642 9.929 95.25 11.1999 95.25 12.5C95.2475 14.2424 94.5542 15.9127 93.3217 17.1448C92.09 18.377 90.42 19.0705 88.6775 19.0733ZM64.2108 1.8125C62.097 1.8125 60.0307 2.43932 58.2732 3.61367C56.5156 4.78803 55.1457 6.45719 54.3368 8.41008C53.5279 10.363 53.3163 12.5118 53.7287 14.585C54.1411 16.6582 55.1589 18.5625 56.6536 20.0572C58.1482 21.5519 60.0526 22.5697 62.1257 22.9822C64.1989 23.3945 66.3478 23.1829 68.3007 22.374C70.2537 21.5651 71.9227 20.1952 73.0972 18.4377C74.2715 16.6801 74.8983 14.6137 74.8983 12.5C74.895 9.6665 73.7679 6.95003 71.7643 4.94646C69.7607 2.94288 67.0443 1.81581 64.2108 1.8125ZM64.2108 19.0733C62.9995 19.0739 61.8117 18.7398 60.7782 18.1079C59.7449 17.476 58.9062 16.5709 58.3547 15.4924C57.8034 14.4139 57.5607 13.204 57.6535 11.9963C57.7463 10.7886 58.171 9.63 58.8807 8.64842C59.5905 7.66688 60.5577 6.90051 61.6754 6.43393C62.7932 5.96733 64.0182 5.81868 65.2152 6.00437C66.4122 6.19006 67.5345 6.70286 68.4584 7.48618C69.3823 8.2695 70.0718 9.29292 70.4508 10.4433H64.2108V14.5567H70.4508C70.0167 15.8694 69.1804 17.0123 68.0603 17.8229C66.9403 18.6337 65.5935 19.0711 64.2108 19.0733Z" fill="#DAC5A7"/>
</g>
<defs>
<filter id="filter0_dd_1301_3321" x="-2" y="0" width="107.167" height="33" filterUnits="userSpaceOnUse" color-interpolation-filters="sRGB">
<feFlood flood-opacity="0" result="BackgroundImageFix"/>
<feColorMatrix in="SourceAlpha" type="matrix" values="0 0 0 0 0 0 0 0 0 0 0 0 0 0 0 0 0 0 127 0" result="hardAlpha"/>
<feOffset dy="4"/>
<feGaussianBlur stdDeviation="2"/>
<feComposite in2="hardAlpha" operator="out"/>
<feColorMatrix type="matrix" values="0 0 0 0 0 0 0 0 0 0 0 0 0 0 0 0 0 0 0.25 0"/>
<feBlend mode="normal" in2="BackgroundImageFix" result="effect1_dropShadow_1301_3321"/>
<feColorMatrix in="SourceAlpha" type="matrix" values="0 0 0 0 0 0 0 0 0 0 0 0 0 0 0 0 0 0 127 0" result="hardAlpha"/>
<feOffset dy="4"/>
<feGaussianBlur stdDeviation="2"/>
<feComposite in2="hardAlpha" operator="out"/>
<feColorMatrix type="matrix" values="0 0 0 0 0 0 0 0 0 0 0 0 0 0 0 0 0 0 0.25 0"/>
<feBlend mode="normal" in2="effect1_dropShadow_1301_3321" result="effect2_dropShadow_1301_3321"/>
<feBlend mode="normal" in="SourceGraphic" in2="effect2_dropShadow_1301_3321" result="shape"/>
</filter>
</defs>
</svg>
