<svg width="38" height="38" viewBox="0 0 38 38" fill="none" xmlns="http://www.w3.org/2000/svg">
<g filter="url(#filter0_b_2837_901)">
<rect width="38" height="38" rx="19" fill="#DAC5A7" fill-opacity="0.05"/>
<rect x="0.5" y="0.5" width="37" height="37" rx="18.5" stroke="#DAC5A7" stroke-opacity="0.15"/>
<path d="M26.3438 15.3563C26.3155 15.2882 26.2678 15.23 26.2067 15.1889C26.1456 15.1477 26.0737 15.1255 26 15.125H24.025C23.7809 14.6767 23.4218 14.3014 22.9846 14.0378C22.5474 13.7741 22.048 13.6317 21.5375 13.625C20.7705 13.6217 20.0335 13.9223 19.4876 14.4611C18.9418 15 18.6316 15.7331 18.625 16.5V17.0438C15.975 16.4125 13.7875 14.2563 13.7625 14.2375C13.7143 14.19 13.6542 14.1563 13.5884 14.1402C13.5226 14.1241 13.4537 14.126 13.389 14.1459C13.3243 14.1658 13.2662 14.2028 13.2208 14.253C13.1754 14.3033 13.1445 14.3649 13.1313 14.4313C12.5875 17.4063 13.4813 19.3938 14.325 20.5375C14.7725 21.1499 15.3222 21.6806 15.95 22.1063C14.9813 23.2813 13.3875 23.8938 13.3688 23.9C13.3155 23.9196 13.2675 23.9513 13.2285 23.9925C13.1894 24.0337 13.1605 24.0833 13.1438 24.1375C13.126 24.1904 13.1207 24.2467 13.1283 24.302C13.1359 24.3573 13.1562 24.4101 13.1875 24.4563C13.25 24.55 13.8625 25.375 16 25.375C20.3563 25.375 24 22.0063 24.35 17.6813L26.2625 15.7625C26.3167 15.7117 26.3537 15.6453 26.3683 15.5724C26.3828 15.4996 26.3743 15.424 26.3438 15.3563ZM23.7188 17.25C23.6537 17.3149 23.6158 17.402 23.6125 17.4938C23.3563 21.4938 20.0125 24.625 16 24.625C15.1313 24.625 14.575 24.475 14.2438 24.325C14.95 23.9688 16.1063 23.2688 16.8125 22.2063C16.8406 22.1622 16.8596 22.1129 16.8682 22.0614C16.8768 22.0098 16.8748 21.9571 16.8625 21.9063C16.8492 21.8543 16.825 21.8057 16.7916 21.7637C16.7583 21.7217 16.7164 21.6872 16.6688 21.6625C16.6563 21.6625 15.7188 21.175 14.9063 20.0625C13.9375 18.7375 13.5563 17.1188 13.7688 15.25C14.6813 16.025 16.65 17.4875 18.9375 17.8688C18.9913 17.879 19.0468 17.8771 19.0998 17.8632C19.1528 17.8493 19.2021 17.8238 19.244 17.7885C19.2859 17.7531 19.3194 17.7089 19.342 17.659C19.3647 17.6091 19.376 17.5548 19.375 17.5V16.5C19.38 15.9336 19.6089 15.3922 20.0117 14.9941C20.4145 14.5959 20.9586 14.3734 21.525 14.375C21.9343 14.3809 22.3332 14.5042 22.6745 14.7302C23.0157 14.9563 23.2849 15.2755 23.45 15.65C23.4785 15.7174 23.5264 15.7748 23.5876 15.8148C23.6489 15.8549 23.7206 15.8759 23.7938 15.875H25.0938L23.7188 17.25Z" fill="#DAC5A7"/>
</g>
<defs>
<filter id="filter0_b_2837_901" x="-30" y="-30" width="98" height="98" filterUnits="userSpaceOnUse" color-interpolation-filters="sRGB">
<feFlood flood-opacity="0" result="BackgroundImageFix"/>
<feGaussianBlur in="BackgroundImageFix" stdDeviation="15"/>
<feComposite in2="SourceAlpha" operator="in" result="effect1_backgroundBlur_2837_901"/>
<feBlend mode="normal" in="SourceGraphic" in2="effect1_backgroundBlur_2837_901" result="shape"/>
</filter>
</defs>
</svg>
